<svg xmlns="http://www.w3.org/2000/svg" xmlns:xlink="http://www.w3.org/1999/xlink" width="500" zoomAndPan="magnify" viewBox="0 0 375 374.999991" height="500" preserveAspectRatio="xMidYMid meet" version="1.0"><defs><clipPath id="cdeaa5da6a"><path d="M 149 106 L 351 106 L 351 289.304688 L 149 289.304688 Z M 149 106 " clip-rule="nonzero"/></clipPath><clipPath id="63dca0eef5"><path d="M 16.277344 125 L 161 125 L 161 245 L 16.277344 245 Z M 16.277344 125 " clip-rule="nonzero"/></clipPath></defs><path fill="#ed1f2f" d="M 187.785156 159.699219 L 196.863281 233.050781 C 193.074219 229.769531 188.886719 226.171875 184.238281 222.167969 C 173.542969 212.960938 166.097656 203.945312 160.949219 195.585938 L 176.515625 195.585938 C 178.265625 195.585938 179.78125 194.378906 180.171875 192.675781 L 187.785156 159.699219 " fill-opacity="1" fill-rule="nonzero"/><g clip-path="url(#cdeaa5da6a)"><path fill="#ed1f2f" d="M 316.097656 222.167969 C 273.144531 259.144531 269.648438 262.148438 250.167969 289.632812 C 235.59375 269.074219 229.972656 262.210938 210.066406 244.570312 L 225.65625 175.515625 L 242.761719 225.714844 C 243.273438 227.195312 244.640625 228.207031 246.199219 228.25 C 247.761719 228.304688 249.1875 227.378906 249.785156 225.941406 L 262.335938 195.585938 L 307.105469 195.585938 C 309.179688 195.585938 310.859375 193.902344 310.859375 191.832031 C 310.859375 189.757812 309.179688 188.078125 307.105469 188.078125 L 259.828125 188.078125 C 258.304688 188.078125 256.941406 188.992188 256.359375 190.398438 L 246.65625 213.855469 L 228.476562 160.511719 C 227.9375 158.917969 226.40625 157.890625 224.726562 157.972656 C 223.050781 158.0625 221.632812 159.257812 221.265625 160.894531 L 204.617188 234.613281 L 192.625 137.703125 C 192.398438 135.902344 190.914062 134.511719 189.097656 134.414062 C 187.292969 134.316406 185.652344 135.550781 185.246094 137.320312 L 173.527344 188.078125 L 156.828125 188.078125 C 146.464844 166.667969 150.777344 151.214844 150.777344 151.214844 C 150.777344 151.214844 152.273438 115.734375 192.730469 107.238281 C 233.183594 98.746094 250.167969 136.71875 250.167969 136.71875 C 250.167969 136.71875 267.148438 98.746094 307.601562 107.238281 C 348.066406 115.734375 349.558594 151.214844 349.558594 151.214844 C 349.558594 151.214844 359.054688 185.195312 316.097656 222.167969 " fill-opacity="1" fill-rule="nonzero"/></g><g clip-path="url(#63dca0eef5)"><path fill="#ec1d27" d="M 156.828125 188.078125 C 158 190.511719 159.367188 193.019531 160.949219 195.585938 L 145.332031 195.585938 L 133.871094 225.832031 C 133.261719 227.433594 131.648438 228.425781 129.953125 228.230469 C 128.25 228.042969 126.886719 226.726562 126.640625 225.039062 L 120.742188 183.878906 L 109.273438 241.117188 C 108.921875 242.871094 107.375 244.132812 105.597656 244.132812 L 105.527344 244.132812 C 103.71875 244.105469 102.1875 242.78125 101.890625 240.996094 C 96.664062 209.703125 88.4375 162.726562 83.957031 141.6875 C 80.054688 154.886719 73.929688 177.332031 69.816406 192.792969 C 69.382812 194.4375 67.886719 195.585938 66.191406 195.585938 L 20.03125 195.585938 C 17.960938 195.585938 16.277344 193.902344 16.277344 191.832031 C 16.277344 189.757812 17.960938 188.078125 20.03125 188.078125 L 63.308594 188.078125 C 68.433594 168.839844 78.851562 130.421875 81.082031 127.070312 C 81.976562 125.734375 83.558594 125.082031 85.121094 125.414062 C 87.902344 126.011719 88.574219 128.691406 89.683594 133.132812 C 90.425781 136.105469 91.371094 140.433594 92.503906 145.980469 C 94.390625 155.261719 96.804688 168.15625 99.695312 184.292969 C 101.960938 196.960938 104.167969 209.6875 105.894531 219.75 L 117.671875 160.984375 C 118.03125 159.195312 119.628906 157.914062 121.457031 157.972656 C 123.285156 158.027344 124.8125 159.382812 125.066406 161.195312 L 132.007812 209.558594 L 139.234375 190.496094 C 139.785156 189.039062 141.1875 188.078125 142.742188 188.078125 L 156.828125 188.078125 " fill-opacity="1" fill-rule="nonzero"/></g><path fill="#ec1d27" d="M 210.066406 244.570312 L 207.199219 257.261719 C 206.808594 258.980469 205.285156 260.191406 203.539062 260.191406 C 203.476562 260.191406 203.417969 260.191406 203.351562 260.179688 C 201.523438 260.089844 200.039062 258.710938 199.816406 256.890625 L 196.863281 233.050781 C 201.902344 237.40625 206.246094 241.191406 210.066406 244.570312 " fill-opacity="1" fill-rule="nonzero"/></svg>